<svg xmlns="http://www.w3.org/2000/svg" width="920" height="44" viewBox="0 0 920 44">
  <rect width="920" height="44" rx="6" fill="#1a1a2e"/>
  <!-- Directory -->
  <rect x="4" y="6" width="180" height="32" rx="4" fill="#8b4513"/>
  <text x="14" y="27" font-family="Consolas,monospace" font-size="13" fill="#fff"> C:\Users\User</text>
  <!-- Arrow 1 -->
  <polygon points="184,6 196,22 184,38" fill="#8b4513"/>
  <!-- Model -->
  <rect x="196" y="6" width="100" height="32" rx="0" fill="#2d2d2d"/>
  <text x="210" y="27" font-family="Consolas,monospace" font-size="13" fill="#fff">✱ Opus 4.6</text>
  <!-- Arrow 2 -->
  <polygon points="296,6 308,22 296,38" fill="#2d2d2d"/>
  <!-- Context -->
  <rect x="308" y="6" width="195" height="32" rx="0" fill="#2a2a2a"/>
  <text x="318" y="27" font-family="Consolas,monospace" font-size="13" fill="#87ceeb">◐ </text>
  <!-- Context bar empty -->
  <rect x="340" y="12" width="80" height="20" rx="2" fill="#4a7a9a"/>
  <text x="345" y="27" font-family="Consolas,monospace" font-size="13" fill="#64a0c8">░░░░░░░░░░</text>
  <text x="430" y="27" font-family="Consolas,monospace" font-size="13" fill="#87ceeb"> 0%</text>
  <!-- Arrow 3 -->
  <polygon points="503,6 515,22 503,38" fill="#2a2a2a"/>
  <!-- Block 5h -->
  <rect x="515" y="6" width="220" height="32" rx="0" fill="#2a2a2a"/>
  <text x="525" y="27" font-family="Consolas,monospace" font-size="13" fill="#87ceeb">◫ </text>
  <!-- Block bar filled (green-yellow) -->
  <rect x="548" y="12" width="26" height="20" rx="2" fill="#a3ff00"/>
  <!-- Block bar empty -->
  <rect x="574" y="12" width="54" height="20" rx="2" fill="#4a7a9a"/>
  <text x="550" y="27" font-family="Consolas,monospace" font-size="12" fill="#a3ff00">███</text>
  <text x="578" y="27" font-family="Consolas,monospace" font-size="12" fill="#64a0c8">░░░░░</text>
  <text x="640" y="27" font-family="Consolas,monospace" font-size="13" fill="#87ceeb"> 32% (3ч14м)</text>
  <!-- Arrow 4 -->
  <polygon points="735,6 747,22 735,38" fill="#2a2a2a"/>
  <!-- Weekly -->
  <rect x="747" y="6" width="168" height="32" rx="0" fill="#1a1a1a"/>
  <text x="757" y="27" font-family="Consolas,monospace" font-size="13" fill="#98fb98">○ </text>
  <rect x="778" y="12" width="10" height="20" rx="2" fill="#24ff00"/>
  <rect x="788" y="12" width="54" height="20" rx="2" fill="#4a7a9a"/>
  <text x="780" y="27" font-family="Consolas,monospace" font-size="12" fill="#24ff00">█</text>
  <text x="790" y="27" font-family="Consolas,monospace" font-size="12" fill="#64a0c8">░░░░░░░</text>
  <text x="860" y="27" font-family="Consolas,monospace" font-size="13" fill="#98fb98"> 7%</text>
</svg>
